<?xml version="1.0" encoding="iso-8859-1"?>
<svg version="1.1" id="Capa_1" xmlns="http://www.w3.org/2000/svg" xmlns:xlink="http://www.w3.org/1999/xlink" x="0px" y="0px"
	 viewBox="0 0 249.84 249.84" style="enable-background:new 0 0 249.84 249.84;" xml:space="preserve">
	<g>
		<path fill="#808080" d="M196.871,124.92l35.452-61.553l0.864-1.499h-72.633L125.786,1.505L124.92,0L89.285,61.868H16.652l36.316,63.052
			l-35.452,61.553l-0.864,1.499h72.633l34.769,60.363l0.866,1.505l35.635-61.868h72.633L196.871,124.92z M228.732,184.244
			l-48.642-28.079c1.122-2.127,1.987-4.346,2.597-6.621l13.029-22.621L228.732,184.244z M114.577,185.972
			c-6.625-2.373-12.205-6.956-15.849-12.858c5.251-0.143,10.42-1.588,15-4.232c4.658-2.689,8.471-6.429,11.201-10.893
			c2.673,4.372,6.441,8.155,11.183,10.893c4.579,2.645,9.748,4.09,14.999,4.232c-3.643,5.902-9.224,10.485-15.849,12.858H114.577z
			M156.641,155.461c-0.213-4.411-1.33-8.589-3.17-12.352l21.398,12.352H156.641z M74.653,155.461l21.903-12.716
			c-1.947,3.858-3.137,8.16-3.356,12.716H74.653z M124.92,154.776c-0.204,0-0.406-0.012-0.609-0.016
			c-4.146-8.608-4.226-19,0.609-27.969c4.836,8.969,4.757,19.36,0.61,27.969C125.326,154.765,125.125,154.776,124.92,154.776z
			M99.263,140.067c5.354-8.081,14.416-13.493,24.743-13.797c-5.247,8.49-14.349,13.93-24.285,14.549
			C99.564,140.571,99.412,140.32,99.263,140.067z M150.12,140.819c-9.937-0.619-19.039-6.059-24.286-14.549
			c10.327,0.304,19.391,5.716,24.744,13.797C150.429,140.32,150.276,140.571,150.12,140.819z M151.131,139.097
			c-4.725-6.893-12.096-11.83-20.636-13.35c8.801-1.565,16.355-6.764,21.057-13.987c1.997,3.995,3.128,8.496,3.128,13.258
			C154.68,130.107,153.393,134.902,151.131,139.097z M125.834,125.224c5.396-8.729,14.867-14.221,25.129-14.576l0.055,0.095
			C145.729,119.201,136.449,124.912,125.834,125.224z M127.694,120.954c3.113-8.563,2.312-17.895-1.783-25.671
			c10.383,0.342,19.437,6.021,24.493,14.383C141.561,110.12,133.329,114.267,127.694,120.954z M124.92,124.702
			c-5.061-9.387-4.735-20.332,0-29.161C129.655,104.37,129.98,115.314,124.92,124.702z M123.929,95.283
			c-4.095,7.776-4.896,17.109-1.783,25.671c-5.635-6.688-13.866-10.834-22.709-11.288C104.492,101.304,113.546,95.625,123.929,95.283
			z M124.006,125.224c-10.616-0.313-19.896-6.023-25.183-14.481l0.054-0.095C109.139,111.003,118.61,116.495,124.006,125.224z
			M119.345,125.747c-8.54,1.52-15.91,6.456-20.635,13.35c-2.262-4.194-3.549-8.989-3.549-14.079c0-4.762,1.131-9.263,3.128-13.259
			C102.99,118.983,110.545,124.182,119.345,125.747z M122.146,130.54c-2.917,8.022-2.396,16.721,1.049,24.183
			c-9.486-0.546-17.795-5.553-22.854-12.951C108.839,141.09,116.703,137,122.146,130.54z M128.525,149.597
			c1.709-6.375,1.396-12.969-0.82-19.043c5.443,6.452,13.302,10.537,21.795,11.218c-5.056,7.394-13.355,12.398-22.833,12.949
			C127.421,153.083,128.049,151.374,128.525,149.597z M157.68,125.018c0-0.941-0.049-1.871-0.127-2.793l8.632,15.167
			c-3.911,2.035-8.207,3.211-12.586,3.438C156.195,136.139,157.68,130.749,157.68,125.018z M126.914,92.324
			c2.307-3.263,5.284-6.117,8.873-8.341L144,98.413C139.128,94.909,133.264,92.708,126.914,92.324z M125.92,91.994V66.646
			l9.373,16.468C131.482,85.47,128.333,88.512,125.92,91.994z M123.92,91.994c-2.413-3.482-5.562-6.524-9.372-8.88l9.372-16.468
			V91.994z M114.053,83.983c3.589,2.224,6.566,5.078,8.874,8.341c-6.351,0.383-12.216,2.585-17.087,6.089L114.053,83.983z
			M96.148,140.669l-0.259,0.15c-4.257-0.271-8.428-1.447-12.234-3.428l8.634-15.169c-0.079,0.923-0.128,1.853-0.128,2.795
			C92.161,130.683,93.607,136.016,96.148,140.669z M97.553,142.993c3.676,5.578,9.009,9.967,15.294,12.468H94.2
			C94.423,150.987,95.612,146.767,97.553,142.993z M152.288,142.992c1.94,3.774,3.13,7.995,3.352,12.469h-18.647
			C143.278,152.96,148.611,148.571,152.288,142.992z M155.063,141.718c4.044-0.394,7.991-1.566,11.616-3.458l8.615,15.137
			L155.063,141.718z M156.504,116.34c-0.537-1.953-1.245-3.835-2.118-5.626c4.551,0.356,8.998,1.723,12.985,4.024
			c4.669,2.696,8.458,6.484,11.118,11.009c-2.552,4.342-6.148,7.998-10.56,10.669L156.504,116.34z M148.549,102.362l-11.025-19.371
			c4.368-2.33,9.233-3.585,14.164-3.63c2.536,4.471,3.992,9.631,3.992,15.127c0,4.721-1.071,9.194-2.98,13.196
			C151.5,105.768,150.107,103.986,148.549,102.362z M137.029,82.123l-10.39-18.255h1.166c9.849,0.921,18.361,6.502,23.306,14.513
			C146.206,78.515,141.379,79.798,137.029,82.123z M123.2,63.868l-10.39,18.255c-4.349-2.325-9.176-3.608-14.081-3.742
			c4.944-8.011,13.456-13.592,23.305-14.513C122.034,63.868,123.2,63.868,123.2,63.868z M98.153,79.361
			c4.929,0.045,9.794,1.3,14.163,3.63l-11.025,19.372c-1.558,1.624-2.95,3.405-4.15,5.321c-1.908-4.002-2.979-8.476-2.979-13.196
			C94.161,88.992,95.617,83.832,98.153,79.361z M93.338,116.337L81.91,136.415c-4.488-2.719-8.039-6.418-10.538-10.668
			c2.603-4.427,6.341-8.263,11.097-11.009c3.987-2.302,8.434-3.669,12.985-4.024C94.583,112.503,93.875,114.385,93.338,116.337z
			M83.161,138.26c3.514,1.834,7.33,2.993,11.244,3.421l-19.7,11.438L83.161,138.26z M93.173,157.461
			c0.075,5.294,1.444,10.281,3.816,14.651c-6.818-0.199-13.294-2.664-18.474-6.846l-4.496-7.806L93.173,157.461L93.173,157.461z
			M94.173,157.461h26.257c1.132,0.156,2.281,0.252,3.446,0.289c-2.577,4.112-6.159,7.675-10.647,10.266
			c-4.596,2.653-9.803,4.069-15.075,4.117C95.688,167.786,94.25,162.786,94.173,157.461z M129.41,157.461h26.258
			c-0.078,5.325-1.515,10.325-3.98,14.672c-5.273-0.048-10.48-1.464-15.075-4.117c-4.488-2.591-8.07-6.153-10.647-10.266
			C127.129,157.713,128.279,157.617,129.41,157.461z M156.668,157.461h19.152l-4.496,7.806c-5.18,4.182-11.655,6.646-18.473,6.846
			C155.225,167.742,156.594,162.755,156.668,157.461z M179.178,155.639l0.478-0.829c-0.14,0.287-0.281,0.573-0.431,0.857
			L179.178,155.639z M177.876,153.891l-9.451-16.607c4.395-2.656,8.015-6.257,10.633-10.53c1.123,2.087,2.017,4.315,2.646,6.662
			c1.12,4.181,1.338,8.459,0.702,12.612L177.876,153.891z M182.669,133.157c-0.703-2.622-1.722-5.105-3.02-7.409
			c1.298-2.306,2.317-4.788,3.02-7.41c1.13-4.219,1.373-8.533,0.771-12.73l11.123,19.313l-10.894,18.914
			C183.941,140.292,183.615,136.691,182.669,133.157z M181.703,118.079c-0.629,2.347-1.523,4.575-2.646,6.662
			c-2.728-4.453-6.537-8.184-11.186-10.868c-4.294-2.479-9.107-3.912-14.02-4.2c-0.174-0.328-0.357-0.65-0.543-0.972
			c2.152-4.279,3.371-9.105,3.371-14.213c0-5.465-1.388-10.611-3.828-15.106c7.691,0.225,14.95,3.333,20.398,8.536l8.669,15.05
			C183.102,107.889,183.049,113.054,181.703,118.079z M152.266,78.362c-4.147-7.007-10.908-12.287-18.933-14.494h26.066
			l12.322,21.395C166.256,80.934,159.427,78.432,152.266,78.362z M97.575,78.362c-7.162,0.069-13.991,2.571-19.456,6.9l12.322-21.395
			h26.065C108.483,66.075,101.723,71.355,97.575,78.362z M76.59,87.918c5.448-5.203,12.707-8.312,20.399-8.536
			c-2.44,4.495-3.828,9.642-3.828,15.106c0,5.108,1.219,9.934,3.371,14.213c-0.186,0.321-0.369,0.644-0.544,0.972
			c-4.912,0.288-9.725,1.721-14.02,4.2c-4.732,2.731-8.495,6.507-11.168,10.867c-3.553-6.598-4.639-14.383-2.853-21.819L76.59,87.918
			z M70.217,125.747c-3.091,5.486-4.513,11.811-4.025,18.123l-10.914-18.95l11.149-19.358
			C65.423,112.546,66.789,119.661,70.217,125.747z M70.801,126.753c2.566,4.188,6.145,7.828,10.615,10.531l-9.452,16.607
			l-4.507-7.824C66.438,139.409,67.646,132.613,70.801,126.753z M70.587,155.508l-0.043,0.025c-0.121-0.234-0.234-0.471-0.349-0.706
			L70.587,155.508z M71.712,157.461l0.653,1.135c-0.25-0.369-0.482-0.753-0.717-1.135H71.712z M97.575,173.132
			c3.33,5.625,8.345,10.136,14.345,12.84H90.441l-10.66-18.508C84.94,171.031,91.122,173.069,97.575,173.132z M152.266,173.132
			c6.452-0.063,12.634-2.1,17.793-5.668l-10.66,18.508H137.92C143.921,183.268,148.936,178.757,152.266,173.132z M178.128,157.461
			h0.063c-0.235,0.382-0.468,0.766-0.718,1.136L178.128,157.461z M229.728,63.868l-34.011,59.048l-14.433-25.057
			c-0.519-1.233-1.109-2.444-1.789-3.621c-0.66-1.143-1.393-2.23-2.18-3.269l-15.609-27.101
			C161.706,63.868,229.728,63.868,229.728,63.868z M125.92,61.868V5.744l32.326,56.124H125.92z M123.92,5.744v56.124H91.594
			L123.92,5.744z M20.112,63.868h68.021l-15.609,27.1c-0.787,1.039-1.52,2.127-2.18,3.271c-0.678,1.175-1.263,2.377-1.774,3.596
			l-14.447,25.083L20.112,63.868z M67.168,149.571c0.587,2.202,1.42,4.368,2.512,6.464l-48.563,28.192l33.006-57.304L67.168,149.571z
			M22.098,185.972l48.57-28.196c1.329,2.202,2.9,4.216,4.682,6.001l12.784,22.195L22.098,185.972L22.098,185.972z M124.92,245.832
			l-33.326-57.86h26.296c2.264,0.514,4.614,0.794,7.03,0.794s4.768-0.28,7.03-0.794h26.296L124.92,245.832z M174.49,163.776
			c1.747-1.75,3.291-3.723,4.604-5.876l48.63,28.071h-66.018L174.49,163.776z"/>
</g>
</svg>
