<?xml version="1.0" encoding="UTF-8" standalone="no"?>
<svg
   xmlns:dc="http://purl.org/dc/elements/1.1/"
   xmlns:cc="http://creativecommons.org/ns#"
   xmlns:rdf="http://www.w3.org/1999/02/22-rdf-syntax-ns#"
   xmlns:svg="http://www.w3.org/2000/svg"
   xmlns="http://www.w3.org/2000/svg"
   xmlns:sodipodi="http://sodipodi.sourceforge.net/DTD/sodipodi-0.dtd"
   xmlns:inkscape="http://www.inkscape.org/namespaces/inkscape"
   width="110"
   height="110"
   id="svg2429"
   sodipodi:version="0.32"
   inkscape:version="0.46"
   version="1.0"
   sodipodi:docname="gear 1.svg"
   inkscape:output_extension="org.inkscape.output.svg.inkscape">
  <defs
     id="defs2431">
    <inkscape:perspective
       sodipodi:type="inkscape:persp3d"
       inkscape:vp_x="0 : 526.18109 : 1"
       inkscape:vp_y="0 : 1000 : 0"
       inkscape:vp_z="744.09448 : 526.18109 : 1"
       inkscape:persp3d-origin="372.04724 : 350.78739 : 1"
       id="perspective2437" />
  </defs>
  <sodipodi:namedview
     id="base"
     pagecolor="#ffffff"
     bordercolor="#666666"
     borderopacity="1.0"
     gridtolerance="10000"
     guidetolerance="10"
     objecttolerance="10"
     inkscape:pageopacity="0.0"
     inkscape:pageshadow="2"
     inkscape:zoom="0.35"
     inkscape:cx="375"
     inkscape:cy="520"
     inkscape:document-units="px"
     inkscape:current-layer="layer1"
     showgrid="false"
     inkscape:window-width="672"
     inkscape:window-height="718"
     inkscape:window-x="600"
     inkscape:window-y="25" />
  <metadata
     id="metadata2434">
    <rdf:RDF>
      <cc:Work
         rdf:about="">
        <dc:format>image/svg+xml</dc:format>
        <dc:type
           rdf:resource="http://purl.org/dc/dcmitype/StillImage" />
        <dc:creator>
          <cc:Agent>
            <dc:title>eugrafia</dc:title>
          </cc:Agent>
        </dc:creator>
        <cc:license
           rdf:resource="http://creativecommons.org/licenses/by-sa/3.0/" />
      </cc:Work>
      <cc:License
         rdf:about="http://creativecommons.org/licenses/by-sa/3.0/">
        <cc:permits
           rdf:resource="http://creativecommons.org/ns#Reproduction" />
        <cc:permits
           rdf:resource="http://creativecommons.org/ns#Distribution" />
        <cc:requires
           rdf:resource="http://creativecommons.org/ns#Notice" />
        <cc:requires
           rdf:resource="http://creativecommons.org/ns#Attribution" />
        <cc:permits
           rdf:resource="http://creativecommons.org/ns#DerivativeWorks" />
        <cc:requires
           rdf:resource="http://creativecommons.org/ns#ShareAlike" />
      </cc:License>
    </rdf:RDF>
  </metadata>
  <g
     inkscape:label="Layer 1"
     inkscape:groupmode="layer"
     id="layer1"
     transform="translate(-602.14286,-417.36218)">
    <g
       id="g3"
       transform="translate(534.64286,392.96318)">
      <path
         d="M 122.5,49.218 C 105.858,49.218 92.318,62.758 92.318,79.399 C 92.318,96.04 105.859,109.58 122.5,109.58 C 139.141,109.58 152.681,96.04 152.681,79.399 C 152.681,62.758 139.142,49.218 122.5,49.218 z M 122.5,105.374 C 108.153,105.374 96.524,93.745 96.524,79.399 C 96.524,65.053 108.152,53.424 122.5,53.424 C 136.845,53.424 148.475,65.053 148.475,79.399 C 148.475,93.745 136.845,105.374 122.5,105.374 z M 177.273,84.261 C 177.414,82.658 177.5,81.038 177.5,79.399 C 177.5,77.76 177.414,76.14 177.273,74.537 L 166.355,73.244 C 165.848,69.6 164.898,66.102 163.561,62.798 L 172.376,56.217 C 170.999,53.258 169.364,50.444 167.503,47.8 L 157.397,52.144 C 155.169,49.295 152.603,46.728 149.755,44.502 L 154.097,34.395 C 151.453,32.536 148.64,30.9 145.681,29.523 L 139.099,38.337 C 135.796,37 132.296,36.05 128.654,35.544 L 127.361,24.625 C 125.758,24.485 124.138,24.399 122.499,24.399 C 120.857,24.399 119.24,24.485 117.635,24.625 L 116.344,35.544 C 112.7,36.05 109.201,37 105.898,38.337 L 99.317,29.523 C 96.358,30.9 93.545,32.535 90.9,34.395 L 95.242,44.502 C 92.394,46.73 89.828,49.295 87.601,52.144 L 77.495,47.8 C 75.635,50.445 74.001,53.258 72.623,56.217 L 81.437,62.798 C 80.1,66.102 79.15,69.6 78.644,73.244 L 67.725,74.536 C 67.585,76.14 67.5,77.76 67.5,79.399 C 67.5,81.038 67.585,82.658 67.726,84.262 L 78.645,85.554 C 79.152,89.197 80.102,92.696 81.438,96 L 72.624,102.581 C 74.002,105.54 75.636,108.354 77.496,110.998 L 87.603,106.655 C 89.83,109.503 92.396,112.068 95.244,114.296 L 90.902,124.402 C 93.547,126.262 96.36,127.898 99.319,129.275 L 105.9,120.461 C 109.203,121.797 112.703,122.747 116.346,123.254 L 117.637,134.173 C 119.242,134.313 120.86,134.399 122.501,134.399 C 124.14,134.399 125.76,134.313 127.363,134.173 L 128.656,123.254 C 132.298,122.747 135.798,121.797 139.101,120.461 L 145.683,129.275 C 148.641,127.898 151.455,126.263 154.099,124.404 L 149.757,114.296 C 152.605,112.068 155.171,109.503 157.399,106.655 L 167.505,110.998 C 169.365,108.353 171.001,105.54 172.378,102.581 L 163.561,96 C 164.898,92.696 165.848,89.197 166.355,85.554 L 177.273,84.261 z M 122.5,111.714 C 104.681,111.714 90.185,97.217 90.185,79.4 C 90.185,61.583 104.681,47.086 122.5,47.086 C 140.317,47.086 154.814,61.583 154.814,79.4 C 154.814,97.217 140.317,111.714 122.5,111.714 z"
         id="path5" />
    </g>
  </g>
</svg>
